<?xml version="1.0" encoding="utf-8"?>
<!-- Generator: Adobe Illustrator 18.1.1, SVG Export Plug-In . SVG Version: 6.00 Build 0)  -->
<svg version="1.1" id="Layer_1" xmlns="http://www.w3.org/2000/svg" xmlns:xlink="http://www.w3.org/1999/xlink" x="0px" y="0px"
	 viewBox="0 0 1280 549.9" enable-background="new 0 0 1280 549.9" xml:space="preserve">
<rect y="-250.1" fill="#231F20" width="1280" height="800"/>
<g>
	
		<rect x="245.8" y="344.6" transform="matrix(0.9526 -0.3041 0.3041 0.9526 -96.2695 95.4858)" fill="none" stroke="#FFFFFF" stroke-width="4" stroke-linecap="round" stroke-linejoin="round" stroke-miterlimit="10" width="25.2" height="24.4"/>
	
		<polyline fill="none" stroke="#FFFFFF" stroke-width="6" stroke-linecap="round" stroke-linejoin="round" stroke-miterlimit="10" points="
		208.1,366.4 143.6,386.8 167.5,461.9 244.9,437.2 225.1,375.2 	"/>
	
		<rect x="290.7" y="381.1" transform="matrix(0.9878 0.1555 -0.1555 0.9878 64.8517 -42.384)" fill="none" stroke="#FFFFFF" stroke-width="3" stroke-linecap="round" stroke-linejoin="round" stroke-miterlimit="10" width="25.2" height="24.4"/>
</g>
<g>
	<g id="XMLID_7_">
		<g>
			<path fill="#EFB310" d="M362,291c7.4,0.7,12.8,7.3,12.1,14.7c-0.7,7.4-7.3,12.8-14.7,12.1s-12.8-7.3-12.1-14.7
				C348,295.7,354.6,290.3,362,291z"/>
		</g>
		<g>
			<path fill="none" stroke="#FFFFFF" stroke-width="3" stroke-linecap="round" stroke-linejoin="round" stroke-miterlimit="10" d="
				M341.7,298.2c-0.7,7.4,4.7,14,12.1,14.7c7.4,0.7,14-4.7,14.7-12.1s-4.7-14-12.1-14.7C349,285.4,342.4,290.8,341.7,298.2z"/>
		</g>
	</g>
	
		<circle fill="none" stroke="#FFFFFF" stroke-width="3" stroke-linecap="round" stroke-linejoin="round" stroke-miterlimit="10" cx="310.2" cy="308.2" r="7.4"/>
	
		<circle fill="none" stroke="#FFFFFF" stroke-width="3" stroke-linecap="round" stroke-linejoin="round" stroke-miterlimit="10" cx="356" cy="252.6" r="11"/>
</g>
<g>
	<polygon fill="none" stroke="#FFFFFF" stroke-width="3" stroke-linejoin="round" stroke-miterlimit="10" points="410.2,216.3 
		446.8,285.7 448.5,310.8 428.6,295.3 392,225.9 	"/>
	<path fill="none" stroke="#FFFFFF" stroke-width="3" stroke-linejoin="round" stroke-miterlimit="10" d="M390,221.6l18.6-9.8
		l-4.5-8.5c-1.3-2.4-4.3-3.4-6.8-2.1l-9.7,5.1c-2.4,1.3-3.4,4.3-2.1,6.8L390,221.6z"/>
	
		<line fill="none" stroke="#FFFFFF" stroke-width="3" stroke-linecap="round" stroke-linejoin="round" stroke-miterlimit="10" x1="400.4" y1="228" x2="432.2" y2="288.3"/>
	
		<line fill="none" stroke="#FFFFFF" stroke-width="3" stroke-linecap="round" stroke-linejoin="round" stroke-miterlimit="10" x1="390.8" y1="209.8" x2="393.7" y2="215.2"/>
	<polygon fill="#FFFFFF" points="440.9,303.2 447.5,309 446.5,300 	"/>
</g>
<g>
	<g id="XMLID_5_">
		<g>
			<path fill="#2443B5" d="M761.7,185.2l1.9-0.4l4.4,24l-23.6,4.3l-4.4-24l1.9-0.3L761.7,185.2z M756.3,201.6l-0.8-4.3
				c0.7-0.4,1.1-1.3,0.9-2.1c-0.2-1.1-1.3-1.9-2.5-1.7c-1.1,0.2-1.9,1.3-1.7,2.5c0.1,0.8,0.8,1.5,1.6,1.7l0.8,4.3L756.3,201.6z"/>
			<path fill="#FFFFFF" d="M749.5,191c0.2,0.9-0.2,1.7-0.9,2.1l-0.3-1.5l-1.7,0.3l0.3,1.5c-0.8-0.2-1.4-0.8-1.6-1.7
				c-0.2-1.1,0.5-2.3,1.7-2.5C748.2,189.1,749.3,189.8,749.5,191z"/>
			<path fill="#FFFFFF" d="M748.6,193.1l0.8,4.3l-1.7,0.3l-0.8-4.3c0.3,0.1,0.6,0.1,0.9,0C748.1,193.4,748.4,193.3,748.6,193.1z"/>
			<path fill="#FFFFFF" d="M747.8,193.4c-0.3,0.1-0.6,0-0.9,0l-0.3-1.5l1.7-0.3l0.3,1.5C748.4,193.3,748.1,193.4,747.8,193.4z"/>
		</g>
		<g>
			
				<polygon fill="none" stroke="#FFFFFF" stroke-width="3" stroke-linecap="round" stroke-linejoin="round" stroke-miterlimit="10" points="
				735.1,184.7 733.2,185.1 737.6,209.1 761.2,204.8 756.8,180.8 754.9,181.1 			"/>
			<path fill="none" stroke="#FFFFFF" stroke-width="3" stroke-linecap="round" stroke-linejoin="round" stroke-miterlimit="10" d="
				M738.6,170.2c1-0.7,2.3-1.2,3.8-1.5c6.7-1.2,10,3.7,12.5,12.4l0,0"/>
			<path fill="none" stroke="#FFFFFF" stroke-width="3" stroke-linecap="round" stroke-linejoin="round" stroke-miterlimit="10" d="
				M735.1,184.7c-0.1-1.6-0.2-3.2-0.2-4.6"/>
		</g>
	</g>
</g>
<g>
	<path fill="none" stroke="#FFFFFF" stroke-width="4" stroke-linecap="round" stroke-linejoin="round" stroke-miterlimit="10" d="
		M646.3,185.8c0.9-0.9,1.6-2,2.2-3.2c4-7.5,1.1-16.8-6.4-20.8s-16.8-1.1-20.8,6.4c-4,7.5-1.1,16.8,6.4,20.8c1.1,0.6,2.3,1,3.5,1.3"
		/>
	
		<rect x="650.1" y="117.5" transform="matrix(0.8835 0.4684 -0.4684 0.8835 142.3352 -289.381)" fill="#FFFFFF" width="5.8" height="47.9"/>
	
		<rect x="651.5" y="118.4" transform="matrix(-0.8835 -0.4684 0.4684 -0.8835 1180.4473 534.0984)" fill="#FFFFFF" width="10.2" height="3.7"/>
	
		<rect x="651.3" y="126" transform="matrix(-0.8835 -0.4684 0.4684 -0.8835 1172.8628 547.7852)" fill="#FFFFFF" width="6.6" height="4.1"/>
</g>
<g id="XMLID_3_">
	<g>
		<path fill="#298A2C" d="M899.4,168.9c38.3,3.7,67.8,23.7,65.7,44.8c-2,21-34.7,35.1-73.1,31.4c-10.4-1-20.1-3.2-28.8-6.3
			c-5.7,2.4-14.4,5.5-26.6,8.3c6.1-3.6,9.7-10.1,11.6-15.2c-14.5-8.5-23.1-19.9-22-31.6C828.3,179.3,861,165.2,899.4,168.9z"/>
	</g>
	<g>
		<path fill="none" stroke="#FFFFFF" stroke-width="3" stroke-linecap="round" stroke-linejoin="round" stroke-miterlimit="10" d="
			M827.5,176.3c-5.9,4.9-9.5,10.8-10.2,17.4c-1.1,11.7,7.5,23.1,22,31.6c-2,5.1-5.5,11.6-11.6,15.2c12.2-2.8,20.9-5.9,26.6-8.3
			c8.6,3.1,18.4,5.3,28.8,6.3c38.3,3.7,71-10.4,73.1-31.4c2-21-27.4-41.1-65.7-44.8c-21.1-2-40.5,1.3-54,8.3"/>
	</g>
</g>
<g>
	
		<polygon fill="none" stroke="#FFFFFF" stroke-width="2" stroke-linecap="round" stroke-linejoin="round" stroke-miterlimit="10" points="
		1108.3,79.2 1116.1,79.9 1111.6,85.8 1107.1,91.2 1103.7,85.2 1100.5,78.4 	"/>
	<g id="XMLID_4_">
		<g>
			<polygon fill="#EFB310" points="1077.1,139.6 1069.8,164.2 1062.4,188.8 1044.8,170.1 1027.2,151.5 1052.1,145.5 			"/>
		</g>
		<g>
			
				<polyline fill="none" stroke="#FFFFFF" stroke-width="4" stroke-linecap="round" stroke-linejoin="round" stroke-miterlimit="10" points="
				1071.9,186.3 1066.7,203.7 1049.1,185 1031.5,166.4 1056.4,160.4 1081.4,154.5 1076.4,171.3 			"/>
		</g>
	</g>
	
		<polygon fill="none" stroke="#FFFFFF" stroke-width="3" stroke-linecap="round" stroke-linejoin="round" stroke-miterlimit="10" points="
		1052,100.2 1064.8,97.2 1061.1,109.8 1057.3,122.4 1048.3,112.9 1039.2,103.3 	"/>
	<circle fill="#FFFFFF" cx="1074.2" cy="179.1" r="2.5"/>
</g>
<g>
	
		<line fill="none" stroke="#FFFFFF" stroke-width="3" stroke-linecap="round" stroke-linejoin="round" stroke-miterlimit="10" x1="962" y1="128.9" x2="932.1" y2="126"/>
	
		<line fill="none" stroke="#FFFFFF" stroke-width="3" stroke-linecap="round" stroke-linejoin="round" stroke-miterlimit="10" x1="938.2" y1="141.2" x2="940.9" y2="113.3"/>
	
		<line fill="none" stroke="#FFFFFF" stroke-width="3" stroke-linecap="round" stroke-linejoin="round" stroke-miterlimit="10" x1="981" y1="80.5" x2="964.9" y2="88.9"/>
	
		<line fill="none" stroke="#FFFFFF" stroke-width="3" stroke-linecap="round" stroke-linejoin="round" stroke-miterlimit="10" x1="977.9" y1="95" x2="967.7" y2="75.4"/>
	
		<line fill="none" stroke="#FFFFFF" stroke-width="4" stroke-linecap="round" stroke-linejoin="round" stroke-miterlimit="10" x1="977.9" y1="166.8" x2="962.3" y2="159.6"/>
	
		<line fill="none" stroke="#FFFFFF" stroke-width="4" stroke-linecap="round" stroke-linejoin="round" stroke-miterlimit="10" x1="966.1" y1="171.8" x2="973.3" y2="155.5"/>
</g>
<line fill="none" stroke="#FFFFFF" stroke-width="3" stroke-linejoin="round" stroke-miterlimit="10" x1="428" y1="295.6" x2="446.2" y2="286"/>
<g id="XMLID_1_">
	<g>
		<g id="XMLID_6_">
			<g>
				<path fill="#B80700" d="M499.4,251.6c-4.6-1.6-6.4-0.1-10.6-0.9c-0.8-0.2-1.7-0.4-2.6-0.7c-1.4-5.8-2.2-11.2-1.3-14.7
					c1.7-6.6,8.3-13.4,15.7-13.1c5.7,0.2,11.7,5,14.5,11.3l0.1,0c6.6-2.2,13.9-1,17.9,3.1c5.2,5.3,4.6,14.8,0.9,20.5
					c-1.3,2-3.7,4-6.6,5.9c-0.3-0.2-0.5-0.3-0.8-0.5c-5.2-2.7-8.4,0.7-14.5-1.5C505.9,258.8,506.4,254,499.4,251.6z"/>
				<path fill="#FFFFFF" d="M492.4,261.4c4.2,0.8,6-0.7,10.6,0.9c7,2.4,6.5,7.2,12.9,9.4c6.1,2.2,9.3-1.3,14.5,1.5
					c0.3,0.1,0.5,0.3,0.8,0.5c-11.3,7.4-31,14-32.3,15.6c0.3-1.8-5.9-16.1-9-28.6C490.7,261.1,491.6,261.3,492.4,261.4z"/>
			</g>
			<g>
				
					<path fill="none" stroke="#FFFFFF" stroke-width="3" stroke-linecap="round" stroke-linejoin="round" stroke-miterlimit="10" d="
					M540,252.8c-0.6-2.1-1.6-4-3.2-5.5c-4-4.1-11.3-5.2-17.9-3.1l-0.1,0c-2.8-6.3-8.8-11.1-14.5-11.3c-7.5-0.3-14.1,6.5-15.7,13.1
					c-0.9,3.5-0.1,8.9,1.3,14.7c3.1,12.4,9.3,26.8,9,28.6c1.3-1.7,21-8.2,32.3-15.6c2.9-1.9,5.3-3.9,6.6-5.9
					c0.9-1.4,1.7-3.1,2.2-4.8"/>
				<path fill="none" stroke="#FFFFFF" stroke-width="3" stroke-linejoin="round" stroke-miterlimit="10" d="M531.1,273.7
					c-0.3-0.2-0.5-0.3-0.8-0.5c-5.2-2.7-8.4,0.7-14.5-1.5c-6.4-2.2-5.9-7-12.9-9.4c-4.6-1.6-6.4-0.1-10.6-0.9
					c-0.8-0.2-1.7-0.4-2.6-0.7"/>
			</g>
		</g>
	</g>
</g>
<g>
	<g id="XMLID_8_">
		<g>
			<path fill="#2443B5" d="M626.5,241c0.9,4.9,0.3,9.6-2.5,13.9c-5.3,8.1-16.3,10.5-24.4,5.2c-8.1-5.3-10.4-16.2-5.1-24.3
				c2.8-4.3,7.1-7.2,11.8-8l0.1-0.2c3.6,1.4,7.3,3.2,10.7,5.5c3.5,2.3,6.7,5,9.5,7.8L626.5,241z M616.2,249.5
				c1.1-1.7,1.5-3.7,1.3-5.5l-6.7,0.5l5.5-3.9c-0.6-1-1.5-1.8-2.5-2.5c-3.8-2.5-8.9-1.4-11.4,2.4c-2.5,3.8-1.4,8.9,2.4,11.4
				C608.6,254.4,613.7,253.3,616.2,249.5z"/>
			<path fill="#FFFFFF" d="M610.2,236.8c0.2,1.5-0.1,3-1,4.4c-2,3-6,3.9-9.1,1.9c-3-2-3.9-6-1.9-9c2-3,6-3.9,9-1.9
				c0.8,0.5,1.5,1.2,2,2l-4.4,3.1L610.2,236.8z"/>
		</g>
		<g>
			<path fill="none" stroke="#FFFFFF" stroke-width="3" stroke-linecap="round" stroke-linejoin="round" stroke-miterlimit="10" d="
				M580.8,248.5c3,3.1,6.4,6,10.2,8.5c21.6,14.2,49.5,9.9,49.5,9.9s-5.1-19-19.4-33.5c-2.8-2.8-6-5.5-9.5-7.8
				c-3.5-2.3-7.1-4.1-10.7-5.5c-19.1-7.4-38.7-4.5-38.7-4.5s2.2,8.2,7.7,17.9"/>
			<path fill="none" stroke="#FFFFFF" stroke-width="3" stroke-linecap="round" stroke-linejoin="round" stroke-miterlimit="10" d="
				M620.9,233.6c0.9,4.9,0.3,9.6-2.5,13.9c-5.3,8.1-16.3,10.5-24.4,5.2c-8.1-5.3-10.4-16.2-5.1-24.3c2.8-4.3,7.1-7.2,11.8-8"/>
		</g>
	</g>
</g>
<g>
	<g id="XMLID_2_">
		<g>
			<path fill="#EFB310" d="M564.6,152.5l17.6,38.8l-16.6,7.5c-0.5-1-1.2-2.5-1.2-2.6c0-0.1-0.6-1.3-0.6-1.4c-0.2-0.7-0.4-2,0-2.6
				c1.7-3.1,1.7-6.9,0.3-10.1c-1.6-3.5-4.8-5.9-8.3-6.4c-2-0.3-4.2-0.2-6.3,0.8c-0.1,0-0.2,0-0.2,0.1c-0.2,0.1-0.4,0.2-0.6,0.3
				c-4.6,2.5-6.7,8-5.1,12.9c0.1,0.4,0.3,0.7,0.4,1.1c1.4,3.2,4.2,5.4,7.7,6.2c0.7,0.2,1.3,0.6,1.7,1.2c0.1,0.1,1.1,2.4,1.2,2.5
				c0.1,0.1,0.7,1.6,1.1,2.6l-20.2,9.1l-9.4-20.7c0,0.1-0.2,2.3-1.8,3c-3.8,1.7-7.4-0.4-9.2-4.2c-1.7-3.8,0.4-8.6,4.3-10.3
				c1.6-0.7,4.2,0.6,5.9,1l-3.9-9.2l21.2-9.6c-0.5-1-1.6-2.9-2-3.1c-1.5-0.8-3.2-3.2-4-4.8c-1.7-3.8-0.3-9,3.5-10.7
				c3.8-1.7,8.2-0.3,10,3.5c0.7,1.6,1.9,5.5,1.5,7.2c-0.1,0.4,0.6,2.3,1,3.4L564.6,152.5z"/>
		</g>
		<g>
			<path fill="none" stroke="#FFFFFF" stroke-width="3" stroke-linejoin="round" stroke-miterlimit="10" d="M553.7,146.2l17.6,38.8
				l-16.6,7.5c-0.5-1-1.2-2.5-1.2-2.6c0-0.1-0.6-1.3-0.6-1.4c-0.2-0.7-0.4-2,0-2.6c1.7-3.1,1.7-6.9,0.3-10.1
				c-1.6-3.5-4.8-5.9-8.3-6.4c-2-0.3-4.2-0.2-6.3,0.8c-0.1,0-0.2,0-0.2,0.1c-0.2,0.1-0.4,0.2-0.6,0.3c-4.6,2.5-6.7,8-5.1,12.9
				c0.1,0.4,0.3,0.7,0.4,1.1c1.4,3.2,4.2,5.4,7.7,6.2c0.7,0.2,1.3,0.6,1.7,1.2c0.1,0.1,1.1,2.4,1.2,2.5c0.1,0.1,0.7,1.6,1.1,2.6
				l-20.2,9.1l-9.4-20.7c0,0.1-0.2,2.3-1.8,3c-3.8,1.7-7.4-0.4-9.2-4.2c-1.7-3.8,0.4-8.6,4.3-10.3c1.6-0.7,4.2,0.6,5.9,1l-3.9-9.2
				l21.2-9.6c-0.5-1-1.6-2.9-2-3.1c-1.5-0.8-3.2-3.2-4-4.8c-1.7-3.8-0.3-9,3.5-10.7c3.8-1.7,8.2-0.3,10,3.5c0.7,1.6,1.9,5.5,1.5,7.2
				c-0.1,0.4,0.6,2.3,1,3.4L553.7,146.2z"/>
		</g>
	</g>
</g>
<polygon fill="none" stroke="#FFFFFF" stroke-width="3" stroke-linecap="round" stroke-linejoin="round" stroke-miterlimit="10" points="
	715,115.6 720.9,149.6 772.6,140.6 800,147.1 787.7,138 798.8,136.1 792.9,102.1 "/>
<path fill="none" stroke="#FFFFFF" stroke-width="2" stroke-linecap="round" stroke-linejoin="round" stroke-miterlimit="10" d="
	M895.8,123.9l-5.6,9.7c-2.9,5-9.2,6.7-14.2,3.8l-33.2-19.1l-25.9-3l13.6-4v0c-5-2.9-6.7-9.2-3.8-14.2l5.6-9.7
	c2.9-5,9.2-6.7,14.2-3.8l45.5,26.2C896.9,112.6,898.7,118.9,895.8,123.9z"/>
<circle fill="#FFFFFF" cx="831.8" cy="172.7" r="1.7"/>
<circle fill="#FFFFFF" cx="735.6" cy="174.3" r="1.4"/>
<circle fill="#FFFFFF" cx="967.1" cy="129.8" r="1.6"/>
<circle fill="#FFFFFF" cx="926.3" cy="125.5" r="1.8"/>
<circle fill="#FFFFFF" cx="540.4" cy="257.8" r="1.6"/>
<circle fill="#FFFFFF" cx="639.9" cy="190.9" r="2.4"/>
<circle fill="#FFFFFF" cx="573.7" cy="241.9" r="2.4"/>
<circle fill="#FFFFFF" cx="219.7" cy="364" r="4.1"/>
<g id="XMLID_9_">
	<g>
		<path fill="#B80700" d="M696.2,207.9c9.7,4.5,13.9,16.1,9.4,25.8c-4.5,9.7-33.1,25.1-33.1,25.1s-6.7-31.7-2.1-41.4
			C675,207.5,686.5,203.3,696.2,207.9z M697.1,228.8c2.1-4.4,0.1-9.7-4.3-11.8s-9.7-0.1-11.8,4.3c-2.1,4.4-0.1,9.7,4.3,11.8
			S695,233.3,697.1,228.8z"/>
	</g>
	<g>
		<path fill="none" stroke="#FFFFFF" stroke-width="3" stroke-miterlimit="10" d="M664,213.4c-4.5,9.7,2.1,41.4,2.1,41.4
			s28.5-15.3,33.1-25.1c4.5-9.7,0.3-21.3-9.4-25.8C680.1,199.5,668.5,203.7,664,213.4z"/>
		<path fill="none" stroke="#FFFFFF" stroke-width="3" stroke-miterlimit="10" d="M690.6,225c2.1-4.4,0.1-9.7-4.3-11.8
			s-9.7-0.1-11.8,4.3c-2.1,4.4-0.1,9.7,4.3,11.8S688.5,229.4,690.6,225z"/>
	</g>
</g>
</svg>
