<?xml version="1.0" encoding="utf-8"?>
<!-- Generator: Adobe Illustrator 18.1.1, SVG Export Plug-In . SVG Version: 6.00 Build 0)  -->
<svg version="1.1" id="Layer_1" xmlns="http://www.w3.org/2000/svg" xmlns:xlink="http://www.w3.org/1999/xlink" x="0px" y="0px"
	 viewBox="0 0 500 500" enable-background="new 0 0 500 500" xml:space="preserve">
<path fill="none" stroke="#000000" stroke-width="5" stroke-miterlimit="10" d="M473,250c0,77.9-40,146.5-100.5,186.4
	c-8,5.3-16.3,10-25,14.3C318,465,285,473,250,473s-68-8-97.5-22.4c-8.7-4.2-17-9-25-14.3C66.9,396.5,27,327.9,27,250
	c0-123.2,99.9-223,223-223S473,126.8,473,250z"/>
<g>
	<path fill="none" stroke="#000000" stroke-width="4" stroke-linecap="round" stroke-linejoin="round" stroke-miterlimit="10" d="
		M259,368"/>
	<path fill="none" stroke="#000000" stroke-width="4" stroke-linecap="round" stroke-linejoin="round" stroke-miterlimit="10" d="
		M262.7,356.3c-1.1-6.3-6.6-11.1-13.2-11.1c-7.4,0-13.4,6-13.4,13.4c0,7.4,6,13.4,13.4,13.4c3.7,0,7.1-1.5,9.5-3.9"/>
	<g>
		<path fill="none" stroke="#000000" stroke-width="4" stroke-linecap="round" stroke-miterlimit="10" d="M224.8,226.9
			c-1.4,7.2-8.4,11.9-15.6,10.5c-7.2-1.4-11.9-8.4-10.5-15.6c5-25.7,25.5-45.3,50-47.6c15.8-1.5,32.3,4.6,44.3,16.1
			c11.3,11,17.3,25.8,16.4,40.6c-0.9,15.1-8.7,29.3-21.4,39c-15.8,12-24.9,30-24.9,49.2v3.1c0,7.3-5.9,13.3-13.3,13.3
			c-7.3,0-13.3-5.9-13.3-13.3v-3.1c0-13.6,3.3-27.2,9.5-39.4c6.1-12,15.1-22.7,25.9-30.9"/>
		<path fill="none" stroke="#000000" stroke-width="4" stroke-linecap="round" stroke-miterlimit="10" d="M251.2,200.7
			c-12.6,1.2-23.7,12.2-26.4,26.2"/>
		<path fill="none" stroke="#000000" stroke-width="4" stroke-linecap="round" stroke-miterlimit="10" d="M251.2,200.7"/>
		<path fill="none" stroke="#000000" stroke-width="4" stroke-miterlimit="10" d="M271.9,248.8"/>
	</g>
</g>
<path fill="none" stroke="#000000" stroke-width="7" stroke-linecap="round" stroke-miterlimit="10" d="M328.9,457.6"/>
<path fill="none" stroke="#000000" stroke-width="4" stroke-linecap="round" stroke-miterlimit="10" d="M153.5,430.1"/>
<path fill="none" stroke="#000000" stroke-width="4" stroke-linecap="round" stroke-miterlimit="10" d="M250,456"/>
<circle cx="258.8" cy="201.1" r="1.8"/>
<circle cx="276.8" cy="245.1" r="1.8"/>
<circle cx="281.8" cy="213.1" r="1.8"/>
<circle cx="262" cy="363.2" r="2"/>
<line fill="none" stroke="#000000" stroke-width="4" stroke-linecap="round" stroke-miterlimit="10" x1="250" y1="133" x2="250" y2="149"/>
<polyline fill="none" stroke="#000000" stroke-width="4" stroke-linecap="round" stroke-miterlimit="10" points="250,99 250,119.5 
	250,121 "/>
<line fill="none" stroke="#000000" stroke-width="4" stroke-linecap="round" stroke-miterlimit="10" x1="365.5" y1="142.8" x2="332.3" y2="180.2"/>
<line fill="none" stroke="#000000" stroke-width="4" stroke-linecap="round" stroke-miterlimit="10" x1="134.5" y1="142.8" x2="167.7" y2="180.2"/>
<circle cx="249.9" cy="127" r="1.5"/>
<circle cx="128.9" cy="137" r="1.5"/>
<circle cx="327.9" cy="185" r="1.5"/>
<path fill="none" stroke="#000000" stroke-width="5" stroke-miterlimit="10" d="M451,250c0,70.3-36,132.1-90.6,168
	c-7.2,4.8-14.7,9-22.6,12.8C311.3,443.8,281.5,451,250,451s-61.3-7.2-87.9-20.2c-7.8-3.8-15.3-8.1-22.6-12.8
	C85,382.1,49,320.3,49,250c0-111,90-201,201-201S451,139,451,250z"/>
<line fill="none" stroke="#000000" stroke-width="5" stroke-miterlimit="10" x1="414" y1="401.5" x2="414" y2="401.5"/>
<line fill="none" stroke="#000000" stroke-width="5" stroke-miterlimit="10" x1="382" y1="401.5" x2="118" y2="401.5"/>
<path fill="none" stroke="#000000" stroke-width="5" stroke-miterlimit="10" d="M83,401.5"/>
</svg>
